<mxfile host="app.diagrams.net" modified="2022-01-23T08:55:21.369Z" agent="5.0 (Macintosh; Intel Mac OS X 10_15_7) AppleWebKit/537.36 (KHTML, like Gecko) Chrome/97.0.4692.71 Safari/537.36" etag="jus0Or6yVm5Qd5oug_pI" version="16.4.5" type="github">
  <diagram name="Page-1" id="74e2e168-ea6b-b213-b513-2b3c1d86103e">
    <mxGraphModel dx="2946" dy="1979" grid="1" gridSize="10" guides="1" tooltips="1" connect="1" arrows="1" fold="1" page="1" pageScale="1" pageWidth="1100" pageHeight="850" background="none" math="0" shadow="0">
      <root>
        <mxCell id="0" />
        <mxCell id="1" parent="0" />
        <mxCell id="2uw9dF1Jm_6rxNydTmVf-54" value="" style="rounded=0;whiteSpace=wrap;html=1;fontStyle=1;fontSize=16;strokeWidth=3;" vertex="1" parent="1">
          <mxGeometry x="20" y="-10" width="860" height="130" as="geometry" />
        </mxCell>
        <mxCell id="77e6c97f196da883-1" value="TimeLine" style="swimlane;html=1;childLayout=stackLayout;startSize=20;rounded=0;shadow=0;labelBackgroundColor=none;strokeWidth=3;fontFamily=Verdana;fontSize=16;align=center;fontStyle=1" parent="1" vertex="1">
          <mxGeometry x="80" y="-50" width="800" height="740" as="geometry" />
        </mxCell>
        <mxCell id="77e6c97f196da883-2" value="T1" style="swimlane;html=1;startSize=20;fontStyle=1;fontSize=16;strokeWidth=3;" parent="77e6c97f196da883-1" vertex="1">
          <mxGeometry y="20" width="160" height="720" as="geometry" />
        </mxCell>
        <mxCell id="77e6c97f196da883-8" value="User Act" style="rounded=1;whiteSpace=wrap;html=1;shadow=0;labelBackgroundColor=none;strokeWidth=3;fontFamily=Verdana;fontSize=16;align=center;fontStyle=1" parent="77e6c97f196da883-2" vertex="1">
          <mxGeometry x="10" y="170" width="100" height="60" as="geometry" />
        </mxCell>
        <mxCell id="2uw9dF1Jm_6rxNydTmVf-13" value="User Act" style="rounded=1;whiteSpace=wrap;html=1;shadow=0;labelBackgroundColor=none;strokeWidth=3;fontFamily=Verdana;fontSize=16;align=center;fontStyle=1" vertex="1" parent="77e6c97f196da883-2">
          <mxGeometry x="10" y="30" width="100" height="60" as="geometry" />
        </mxCell>
        <mxCell id="2uw9dF1Jm_6rxNydTmVf-19" value="User Act" style="rounded=1;whiteSpace=wrap;html=1;shadow=0;labelBackgroundColor=none;strokeWidth=3;fontFamily=Verdana;fontSize=16;align=center;fontStyle=1" vertex="1" parent="77e6c97f196da883-2">
          <mxGeometry x="20" y="470" width="100" height="60" as="geometry" />
        </mxCell>
        <mxCell id="77e6c97f196da883-26" style="edgeStyle=orthogonalEdgeStyle;rounded=1;html=1;labelBackgroundColor=none;startArrow=none;startFill=0;startSize=5;endArrow=classicThin;endFill=1;endSize=5;jettySize=auto;orthogonalLoop=1;strokeWidth=3;fontFamily=Verdana;fontSize=16;entryX=0;entryY=0.5;entryDx=0;entryDy=0;fontStyle=1" parent="77e6c97f196da883-1" source="77e6c97f196da883-8" target="77e6c97f196da883-9" edge="1">
          <mxGeometry relative="1" as="geometry">
            <mxPoint x="190" y="115" as="targetPoint" />
          </mxGeometry>
        </mxCell>
        <mxCell id="77e6c97f196da883-3" value="T2" style="swimlane;html=1;startSize=20;fontStyle=1;fontSize=16;strokeWidth=3;" parent="77e6c97f196da883-1" vertex="1">
          <mxGeometry x="160" y="20" width="160" height="720" as="geometry" />
        </mxCell>
        <mxCell id="2uw9dF1Jm_6rxNydTmVf-47" value="AutoGrad" style="rounded=1;whiteSpace=wrap;html=1;shadow=0;labelBackgroundColor=none;strokeWidth=3;fontFamily=Verdana;fontSize=16;align=center;fontStyle=1" vertex="1" parent="77e6c97f196da883-3">
          <mxGeometry x="40" y="470" width="100" height="60" as="geometry" />
        </mxCell>
        <mxCell id="77e6c97f196da883-4" value="T3" style="swimlane;html=1;startSize=20;fontStyle=1;fontSize=16;strokeWidth=3;" parent="77e6c97f196da883-1" vertex="1">
          <mxGeometry x="320" y="20" width="160" height="720" as="geometry" />
        </mxCell>
        <mxCell id="2uw9dF1Jm_6rxNydTmVf-8" value="Program/Graph" style="rounded=1;whiteSpace=wrap;html=1;shadow=0;labelBackgroundColor=none;strokeWidth=3;fontFamily=Verdana;fontSize=16;align=center;fontStyle=1" vertex="1" parent="77e6c97f196da883-4">
          <mxGeometry x="30" y="30" width="100" height="60" as="geometry" />
        </mxCell>
        <mxCell id="77e6c97f196da883-9" value="AutoGrad" style="rounded=1;whiteSpace=wrap;html=1;shadow=0;labelBackgroundColor=none;strokeWidth=3;fontFamily=Verdana;fontSize=16;align=center;fontStyle=1" parent="77e6c97f196da883-4" vertex="1">
          <mxGeometry x="30" y="170" width="100" height="60" as="geometry" />
        </mxCell>
        <mxCell id="2uw9dF1Jm_6rxNydTmVf-5" value="Execute" style="rounded=1;whiteSpace=wrap;html=1;shadow=0;labelBackgroundColor=none;strokeWidth=3;fontFamily=Verdana;fontSize=16;align=center;fontStyle=1" vertex="1" parent="77e6c97f196da883-4">
          <mxGeometry x="30" y="260" width="100" height="60" as="geometry" />
        </mxCell>
        <mxCell id="2uw9dF1Jm_6rxNydTmVf-6" value="Return&lt;br style=&quot;font-size: 16px;&quot;&gt;" style="rounded=1;whiteSpace=wrap;html=1;shadow=0;labelBackgroundColor=none;strokeWidth=3;fontFamily=Verdana;fontSize=16;align=center;fontStyle=1" vertex="1" parent="77e6c97f196da883-4">
          <mxGeometry x="30" y="360" width="100" height="60" as="geometry" />
        </mxCell>
        <mxCell id="2uw9dF1Jm_6rxNydTmVf-27" value="Execute" style="rounded=1;whiteSpace=wrap;html=1;shadow=0;labelBackgroundColor=none;strokeWidth=3;fontFamily=Verdana;fontSize=16;align=center;fontStyle=1" vertex="1" parent="77e6c97f196da883-4">
          <mxGeometry x="30" y="560" width="100" height="60" as="geometry" />
        </mxCell>
        <mxCell id="2uw9dF1Jm_6rxNydTmVf-28" value="Return&lt;br style=&quot;font-size: 16px;&quot;&gt;" style="rounded=1;whiteSpace=wrap;html=1;shadow=0;labelBackgroundColor=none;strokeWidth=3;fontFamily=Verdana;fontSize=16;align=center;fontStyle=1" vertex="1" parent="77e6c97f196da883-4">
          <mxGeometry x="30" y="650" width="100" height="60" as="geometry" />
        </mxCell>
        <mxCell id="2uw9dF1Jm_6rxNydTmVf-4" style="edgeStyle=orthogonalEdgeStyle;rounded=0;orthogonalLoop=1;jettySize=auto;html=1;exitX=0.5;exitY=1;exitDx=0;exitDy=0;entryX=0.5;entryY=0;entryDx=0;entryDy=0;fontStyle=1;fontSize=16;strokeWidth=3;" edge="1" parent="77e6c97f196da883-4" source="77e6c97f196da883-9" target="2uw9dF1Jm_6rxNydTmVf-5">
          <mxGeometry relative="1" as="geometry">
            <mxPoint x="-90" y="180" as="targetPoint" />
          </mxGeometry>
        </mxCell>
        <mxCell id="2uw9dF1Jm_6rxNydTmVf-7" style="edgeStyle=orthogonalEdgeStyle;rounded=0;orthogonalLoop=1;jettySize=auto;html=1;exitX=0.5;exitY=1;exitDx=0;exitDy=0;fontStyle=1;fontSize=16;strokeWidth=3;" edge="1" parent="77e6c97f196da883-4" source="2uw9dF1Jm_6rxNydTmVf-5" target="2uw9dF1Jm_6rxNydTmVf-6">
          <mxGeometry relative="1" as="geometry" />
        </mxCell>
        <mxCell id="2uw9dF1Jm_6rxNydTmVf-33" style="edgeStyle=orthogonalEdgeStyle;rounded=0;orthogonalLoop=1;jettySize=auto;html=1;exitX=0.5;exitY=1;exitDx=0;exitDy=0;entryX=0.5;entryY=0;entryDx=0;entryDy=0;fontStyle=1;fontSize=16;strokeWidth=3;" edge="1" parent="77e6c97f196da883-4" target="2uw9dF1Jm_6rxNydTmVf-27">
          <mxGeometry relative="1" as="geometry">
            <mxPoint x="80" y="530" as="sourcePoint" />
          </mxGeometry>
        </mxCell>
        <mxCell id="2uw9dF1Jm_6rxNydTmVf-34" style="edgeStyle=orthogonalEdgeStyle;rounded=0;orthogonalLoop=1;jettySize=auto;html=1;exitX=0.5;exitY=1;exitDx=0;exitDy=0;entryX=0.5;entryY=0;entryDx=0;entryDy=0;fontStyle=1;fontSize=16;strokeWidth=3;" edge="1" parent="77e6c97f196da883-4" source="2uw9dF1Jm_6rxNydTmVf-27" target="2uw9dF1Jm_6rxNydTmVf-28">
          <mxGeometry relative="1" as="geometry" />
        </mxCell>
        <mxCell id="2uw9dF1Jm_6rxNydTmVf-46" value="JIT?" style="rhombus;whiteSpace=wrap;html=1;fontStyle=1;fontSize=16;strokeWidth=3;" vertex="1" parent="77e6c97f196da883-4">
          <mxGeometry x="30" y="460" width="100" height="80" as="geometry" />
        </mxCell>
        <mxCell id="77e6c97f196da883-5" value="T4" style="swimlane;html=1;startSize=20;fontStyle=1;fontSize=16;strokeWidth=3;" parent="77e6c97f196da883-1" vertex="1">
          <mxGeometry x="480" y="20" width="160" height="720" as="geometry" />
        </mxCell>
        <mxCell id="2uw9dF1Jm_6rxNydTmVf-29" value="IR" style="rounded=1;whiteSpace=wrap;html=1;shadow=0;labelBackgroundColor=none;strokeWidth=3;fontFamily=Verdana;fontSize=16;align=center;fontStyle=1" vertex="1" parent="77e6c97f196da883-5">
          <mxGeometry x="30" y="470" width="100" height="60" as="geometry" />
        </mxCell>
        <mxCell id="2uw9dF1Jm_6rxNydTmVf-9" value="Pass" style="rounded=1;whiteSpace=wrap;html=1;shadow=0;labelBackgroundColor=none;strokeWidth=3;fontFamily=Verdana;fontSize=16;align=center;fontStyle=1" vertex="1" parent="77e6c97f196da883-5">
          <mxGeometry x="40" y="30" width="100" height="60" as="geometry" />
        </mxCell>
        <mxCell id="77e6c97f196da883-7" value="T5" style="swimlane;html=1;startSize=20;fontStyle=1;fontSize=16;strokeWidth=3;" parent="77e6c97f196da883-1" vertex="1">
          <mxGeometry x="640" y="20" width="160" height="720" as="geometry" />
        </mxCell>
        <mxCell id="2uw9dF1Jm_6rxNydTmVf-12" value="Retrun" style="rounded=1;whiteSpace=wrap;html=1;shadow=0;labelBackgroundColor=none;strokeWidth=3;fontFamily=Verdana;fontSize=16;align=center;fontStyle=1" vertex="1" parent="77e6c97f196da883-7">
          <mxGeometry x="30" y="110" width="100" height="30" as="geometry" />
        </mxCell>
        <mxCell id="2uw9dF1Jm_6rxNydTmVf-37" style="edgeStyle=orthogonalEdgeStyle;rounded=0;orthogonalLoop=1;jettySize=auto;html=1;exitX=0.5;exitY=1;exitDx=0;exitDy=0;entryX=0.5;entryY=0;entryDx=0;entryDy=0;fontStyle=1;fontSize=16;strokeWidth=3;" edge="1" parent="77e6c97f196da883-7" source="2uw9dF1Jm_6rxNydTmVf-31" target="2uw9dF1Jm_6rxNydTmVf-36">
          <mxGeometry relative="1" as="geometry" />
        </mxCell>
        <mxCell id="2uw9dF1Jm_6rxNydTmVf-31" value="Execute" style="rounded=1;whiteSpace=wrap;html=1;shadow=0;labelBackgroundColor=none;strokeWidth=3;fontFamily=Verdana;fontSize=16;align=center;fontStyle=1" vertex="1" parent="77e6c97f196da883-7">
          <mxGeometry x="30" y="560" width="100" height="60" as="geometry" />
        </mxCell>
        <mxCell id="2uw9dF1Jm_6rxNydTmVf-35" style="edgeStyle=orthogonalEdgeStyle;rounded=0;orthogonalLoop=1;jettySize=auto;html=1;exitX=0.5;exitY=1;exitDx=0;exitDy=0;entryX=0.5;entryY=0;entryDx=0;entryDy=0;fontStyle=1;fontSize=16;strokeWidth=3;" edge="1" parent="77e6c97f196da883-7" source="2uw9dF1Jm_6rxNydTmVf-30" target="2uw9dF1Jm_6rxNydTmVf-31">
          <mxGeometry relative="1" as="geometry" />
        </mxCell>
        <mxCell id="2uw9dF1Jm_6rxNydTmVf-30" value="Compile" style="rounded=1;whiteSpace=wrap;html=1;shadow=0;labelBackgroundColor=none;strokeWidth=3;fontFamily=Verdana;fontSize=16;align=center;fontStyle=1" vertex="1" parent="77e6c97f196da883-7">
          <mxGeometry x="30" y="470" width="100" height="60" as="geometry" />
        </mxCell>
        <mxCell id="2uw9dF1Jm_6rxNydTmVf-36" value="Return" style="rounded=1;whiteSpace=wrap;html=1;shadow=0;labelBackgroundColor=none;strokeWidth=3;fontFamily=Verdana;fontSize=16;align=center;fontStyle=1" vertex="1" parent="77e6c97f196da883-7">
          <mxGeometry x="30" y="650" width="100" height="60" as="geometry" />
        </mxCell>
        <mxCell id="2uw9dF1Jm_6rxNydTmVf-38" value="" style="edgeStyle=orthogonalEdgeStyle;rounded=0;orthogonalLoop=1;jettySize=auto;html=1;fontStyle=1;fontSize=16;strokeWidth=3;" edge="1" parent="77e6c97f196da883-7" source="2uw9dF1Jm_6rxNydTmVf-10" target="2uw9dF1Jm_6rxNydTmVf-12">
          <mxGeometry relative="1" as="geometry" />
        </mxCell>
        <mxCell id="2uw9dF1Jm_6rxNydTmVf-10" value="Execute" style="rounded=1;whiteSpace=wrap;html=1;shadow=0;labelBackgroundColor=none;strokeWidth=3;fontFamily=Verdana;fontSize=16;align=center;fontStyle=1" vertex="1" parent="77e6c97f196da883-7">
          <mxGeometry x="30" y="30" width="100" height="60" as="geometry" />
        </mxCell>
        <mxCell id="2uw9dF1Jm_6rxNydTmVf-15" style="edgeStyle=orthogonalEdgeStyle;rounded=0;orthogonalLoop=1;jettySize=auto;html=1;exitX=1;exitY=0.5;exitDx=0;exitDy=0;entryX=0;entryY=0.5;entryDx=0;entryDy=0;fontStyle=1;fontSize=16;strokeWidth=3;" edge="1" parent="77e6c97f196da883-1" source="2uw9dF1Jm_6rxNydTmVf-13" target="2uw9dF1Jm_6rxNydTmVf-8">
          <mxGeometry relative="1" as="geometry" />
        </mxCell>
        <mxCell id="2uw9dF1Jm_6rxNydTmVf-16" style="edgeStyle=orthogonalEdgeStyle;rounded=0;orthogonalLoop=1;jettySize=auto;html=1;exitX=1;exitY=0.5;exitDx=0;exitDy=0;entryX=0;entryY=0.5;entryDx=0;entryDy=0;fontStyle=1;fontSize=16;strokeWidth=3;" edge="1" parent="77e6c97f196da883-1" source="2uw9dF1Jm_6rxNydTmVf-8" target="2uw9dF1Jm_6rxNydTmVf-9">
          <mxGeometry relative="1" as="geometry" />
        </mxCell>
        <mxCell id="2uw9dF1Jm_6rxNydTmVf-17" style="edgeStyle=orthogonalEdgeStyle;rounded=0;orthogonalLoop=1;jettySize=auto;html=1;exitX=1;exitY=0.5;exitDx=0;exitDy=0;entryX=0;entryY=0.5;entryDx=0;entryDy=0;fontStyle=1;fontSize=16;strokeWidth=3;" edge="1" parent="77e6c97f196da883-1" source="2uw9dF1Jm_6rxNydTmVf-9" target="2uw9dF1Jm_6rxNydTmVf-10">
          <mxGeometry relative="1" as="geometry" />
        </mxCell>
        <mxCell id="2uw9dF1Jm_6rxNydTmVf-41" style="edgeStyle=orthogonalEdgeStyle;rounded=0;orthogonalLoop=1;jettySize=auto;html=1;exitX=1;exitY=0.5;exitDx=0;exitDy=0;entryX=0;entryY=0.5;entryDx=0;entryDy=0;fontStyle=1;fontSize=16;strokeWidth=3;" edge="1" parent="77e6c97f196da883-1" source="2uw9dF1Jm_6rxNydTmVf-19">
          <mxGeometry relative="1" as="geometry">
            <mxPoint x="200" y="520" as="targetPoint" />
          </mxGeometry>
        </mxCell>
        <mxCell id="2uw9dF1Jm_6rxNydTmVf-42" style="edgeStyle=orthogonalEdgeStyle;rounded=0;orthogonalLoop=1;jettySize=auto;html=1;entryX=0;entryY=0.5;entryDx=0;entryDy=0;fontStyle=1;fontSize=16;strokeWidth=3;" edge="1" parent="77e6c97f196da883-1">
          <mxGeometry relative="1" as="geometry">
            <mxPoint x="300" y="520" as="sourcePoint" />
            <mxPoint x="350" y="520" as="targetPoint" />
          </mxGeometry>
        </mxCell>
        <mxCell id="2uw9dF1Jm_6rxNydTmVf-45" style="edgeStyle=orthogonalEdgeStyle;rounded=0;orthogonalLoop=1;jettySize=auto;html=1;exitX=1;exitY=0.5;exitDx=0;exitDy=0;entryX=0;entryY=0.5;entryDx=0;entryDy=0;fontStyle=1;fontSize=16;strokeWidth=3;" edge="1" parent="77e6c97f196da883-1" source="2uw9dF1Jm_6rxNydTmVf-29" target="2uw9dF1Jm_6rxNydTmVf-30">
          <mxGeometry relative="1" as="geometry" />
        </mxCell>
        <mxCell id="2uw9dF1Jm_6rxNydTmVf-49" value="Yes" style="edgeStyle=orthogonalEdgeStyle;rounded=0;orthogonalLoop=1;jettySize=auto;html=1;exitX=1;exitY=0.5;exitDx=0;exitDy=0;entryX=0;entryY=0.5;entryDx=0;entryDy=0;fontStyle=1;fontSize=16;strokeWidth=3;" edge="1" parent="77e6c97f196da883-1" source="2uw9dF1Jm_6rxNydTmVf-46" target="2uw9dF1Jm_6rxNydTmVf-29">
          <mxGeometry relative="1" as="geometry" />
        </mxCell>
        <mxCell id="2uw9dF1Jm_6rxNydTmVf-50" value="类动态图" style="swimlane;horizontal=0;fontStyle=1;fontSize=16;strokeWidth=3;" vertex="1" parent="1">
          <mxGeometry x="20" y="420" width="860" height="270" as="geometry" />
        </mxCell>
        <mxCell id="2uw9dF1Jm_6rxNydTmVf-53" value="动态图" style="swimlane;horizontal=0;fontStyle=1;fontSize=16;strokeWidth=3;" vertex="1" parent="1">
          <mxGeometry x="20" y="130" width="540" height="270" as="geometry" />
        </mxCell>
        <mxCell id="2uw9dF1Jm_6rxNydTmVf-55" value="静态图" style="text;html=1;strokeColor=none;fillColor=none;align=center;verticalAlign=middle;whiteSpace=wrap;rounded=0;rotation=-90;fontStyle=1;fontSize=16;strokeWidth=3;" vertex="1" parent="1">
          <mxGeometry x="10" y="40" width="60" height="30" as="geometry" />
        </mxCell>
      </root>
    </mxGraphModel>
  </diagram>
</mxfile>
